<?xml version="1.0" encoding="UTF-8" standalone="no"?>
<!-- Created with Inkscape (http://www.inkscape.org/) -->

<svg
   width="1442.828"
   height="721.414"
   viewBox="0 0 381.74824 190.87412"
   version="1.1"
   id="svg5"
   inkscape:version="1.1 (c4e8f9ed74, 2021-05-24)"
   sodipodi:docname="logo.svg"
   xmlns:inkscape="http://www.inkscape.org/namespaces/inkscape"
   xmlns:sodipodi="http://sodipodi.sourceforge.net/DTD/sodipodi-0.dtd"
   xmlns="http://www.w3.org/2000/svg"
   xmlns:svg="http://www.w3.org/2000/svg">
  <sodipodi:namedview
     id="namedview7"
     pagecolor="#ffffff"
     bordercolor="#666666"
     borderopacity="1.0"
     inkscape:pageshadow="2"
     inkscape:pageopacity="0.0"
     inkscape:pagecheckerboard="0"
     inkscape:document-units="px"
     showgrid="false"
     inkscape:zoom="0.70710678"
     inkscape:cx="636.3961"
     inkscape:cy="357.79603"
     inkscape:window-width="2560"
     inkscape:window-height="1048"
     inkscape:window-x="0"
     inkscape:window-y="0"
     inkscape:window-maximized="1"
     inkscape:current-layer="layer1"
     height="800px"
     fit-margin-top="0"
     fit-margin-left="0"
     fit-margin-right="0"
     fit-margin-bottom="0" />
  <defs
     id="defs2">
    <inkscape:path-effect
       effect="fillet_chamfer"
       id="path-effect19827"
       is_visible="true"
       lpeversion="1"
       satellites_param="F,0,0,1,0,1,0,1 @ F,0,0,1,0,1,0,1 @ F,0,0,1,0,1,0,1 @ F,0,0,1,0,1,0,1 @ F,0,0,1,0,1,0,1 @ F,0,0,1,0,1,0,1 @ F,0,0,1,0,1,0,1 @ F,0,0,1,0,1,0,1 | F,0,0,1,0,1,0,1 @ F,0,0,1,0,1,0,1 @ F,0,0,1,0,1,0,1 @ F,0,0,1,0,1,0,1 @ F,0,0,1,0,1,0,1 @ F,0,0,1,0,1,0,1 @ F,0,0,1,0,1,0,1 | F,0,0,1,0,1,0,1 @ F,0,0,1,0,1,0,1 @ F,0,0,1,0,1,0,1 @ F,0,0,1,0,1,0,1 @ F,0,0,1,0,1,0,1 @ F,0,0,1,0,1,0,1 @ F,0,0,1,0,1,0,1 @ F,0,0,1,0,1,0,1 | F,0,0,1,0,1,0,1 @ F,0,0,1,0,1,0,1 @ F,0,0,1,0,1,0,1 @ F,0,0,1,0,1,0,1 @ F,0,0,1,0,1,0,1 @ F,0,0,1,0,1,0,1 @ F,0,0,1,0,1,0,1"
       unit="px"
       method="auto"
       mode="F"
       radius="5"
       chamfer_steps="1"
       flexible="false"
       use_knot_distance="true"
       apply_no_radius="true"
       apply_with_radius="true"
       only_selected="false"
       hide_knots="false" />
    <inkscape:path-effect
       effect="bspline"
       id="path-effect19823"
       is_visible="true"
       lpeversion="1"
       weight="30"
       steps="2"
       helper_size="0"
       apply_no_weight="true"
       apply_with_weight="true"
       only_selected="false" />
    <inkscape:path-effect
       effect="fillet_chamfer"
       id="path-effect18571"
       is_visible="true"
       lpeversion="1"
       satellites_param="F,0,0,1,0,1,0,1 @ F,0,0,1,0,1,0,1 @ F,0,0,1,0,1,0,1 @ F,0,0,1,0,1,0,1 @ F,0,0,1,0,1,0,1 @ F,0,0,1,0,1,0,1 @ F,0,0,1,0,1,0,1 @ F,0,0,1,0,1,0,1 | F,0,0,1,0,1,0,1 @ F,0,0,1,0,1,0,1 @ F,0,0,1,0,1,0,1 @ F,0,0,1,0,1,0,1 @ F,0,0,1,0,1,0,1 @ F,0,0,1,0,1,0,1 @ F,0,0,1,0,1,0,1 | F,0,0,1,0,1,0,1 @ F,0,0,1,0,1,0,1 @ F,0,0,1,0,1,0,1 @ F,0,0,1,0,1,0,1 @ F,0,0,1,0,1,0,1 @ F,0,0,1,0,1,0,1 @ F,0,0,1,0,1,0,1 @ F,0,0,1,0,1,0,1 | F,0,0,1,0,1,0,1 @ F,0,0,1,0,1,0,1 @ F,0,0,1,0,1,0,1 @ F,0,0,1,0,1,0,1 @ F,0,0,1,0,1,0,1 @ F,0,0,1,0,1,0,1 @ F,0,0,1,0,1,0,1"
       unit="px"
       method="auto"
       mode="F"
       radius="5"
       chamfer_steps="1"
       flexible="false"
       use_knot_distance="true"
       apply_no_radius="true"
       apply_with_radius="true"
       only_selected="false"
       hide_knots="false" />
    <inkscape:path-effect
       effect="bspline"
       id="path-effect18567"
       is_visible="true"
       lpeversion="1"
       weight="30"
       steps="2"
       helper_size="0"
       apply_no_weight="true"
       apply_with_weight="true"
       only_selected="false" />
    <inkscape:path-effect
       effect="bspline"
       id="path-effect49328"
       is_visible="true"
       lpeversion="1"
       weight="30"
       steps="2"
       helper_size="0"
       apply_no_weight="true"
       apply_with_weight="true"
       only_selected="false" />
    <inkscape:path-effect
       effect="taper_stroke"
       id="path-effect49322"
       is_visible="true"
       lpeversion="1"
       stroke_width="1.0583301"
       attach_start="0.2"
       end_offset="0.2"
       start_smoothing="0.5"
       end_smoothing="0.5"
       jointype="extrapolated"
       start_shape="center"
       end_shape="center"
       miter_limit="100" />
    <inkscape:path-effect
       effect="fillet_chamfer"
       id="path-effect49305"
       is_visible="true"
       lpeversion="1"
       satellites_param="F,0,0,1,0,1,0,1 @ F,0,0,1,0,1,0,1 @ F,0,0,1,0,1,0,1 @ F,0,0,1,0,1,0,1 @ F,0,0,1,0,1,0,1 @ F,0,0,1,0,1,0,1 @ F,0,0,1,0,1,0,1 @ F,0,0,1,0,1,0,1 | F,0,0,1,0,1,0,1 @ F,0,0,1,0,1,0,1 @ F,0,0,1,0,1,0,1 @ F,0,0,1,0,1,0,1 @ F,0,0,1,0,1,0,1 @ F,0,0,1,0,1,0,1 @ F,0,0,1,0,1,0,1 | F,0,0,1,0,1,0,1 @ F,0,0,1,0,1,0,1 @ F,0,0,1,0,1,0,1 @ F,0,0,1,0,1,0,1 @ F,0,0,1,0,1,0,1 @ F,0,0,1,0,1,0,1 @ F,0,0,1,0,1,0,1 @ F,0,0,1,0,1,0,1 | F,0,0,1,0,1,0,1 @ F,0,0,1,0,1,0,1 @ F,0,0,1,0,1,0,1 @ F,0,0,1,0,1,0,1 @ F,0,0,1,0,1,0,1 @ F,0,0,1,0,1,0,1 @ F,0,0,1,0,1,0,1"
       unit="px"
       method="auto"
       mode="F"
       radius="5"
       chamfer_steps="1"
       flexible="false"
       use_knot_distance="true"
       apply_no_radius="true"
       apply_with_radius="true"
       only_selected="false"
       hide_knots="false" />
    <inkscape:path-effect
       effect="taper_stroke"
       id="path-effect36200"
       is_visible="true"
       lpeversion="1"
       stroke_width="0.34"
       attach_start="0.4"
       end_offset="0.2"
       start_smoothing="0.5"
       end_smoothing="0.5"
       jointype="extrapolated"
       start_shape="center"
       end_shape="center"
       miter_limit="100" />
    <inkscape:path-effect
       effect="bend_path"
       id="path-effect36196"
       is_visible="true"
       lpeversion="1"
       bendpath="m 279.3835,142.95892 h 71.27968"
       prop_scale="1.07"
       scale_y_rel="false"
       vertical="false"
       hide_knot="false" />
    <inkscape:path-effect
       effect="interpolate"
       id="path-effect36194"
       is_visible="true"
       lpeversion="1"
       trajectory="m 291.59321,131.63677 34.75215,-12.10803"
       equidistant_spacing="true"
       steps="5" />
    <inkscape:path-effect
       effect="rough_hatches"
       id="path-effect36192"
       is_visible="true"
       lpeversion="1"
       direction="315.02334,137.95892 , 17.81992,0"
       dist_rdm="10;1240521391"
       growth="0.6"
       do_bend="true"
       bender="315.02334,142.95892 , 5,0"
       bottom_edge_variation="7.127995;2147483646"
       top_edge_variation="7.127995;1"
       bottom_tgt_variation="0;2147483646"
       top_tgt_variation="0;2147483646"
       scale_bf="1"
       scale_bb="1"
       scale_tf="1"
       scale_tb="1"
       top_smth_variation="0;1485577412"
       bottom_smth_variation="0;2147483646"
       fat_output="true"
       stroke_width_top="1"
       stroke_width_bottom="1"
       front_thickness="1"
       back_thickness="0.25" />
    <inkscape:path-effect
       effect="simplify"
       id="path-effect36190"
       is_visible="true"
       lpeversion="1"
       steps="4"
       threshold="0.002"
       smooth_angles="0"
       helper_size="5"
       simplify_individual_paths="false"
       simplify_just_coalesce="false" />
    <inkscape:path-effect
       effect="knot"
       id="path-effect36188"
       is_visible="true"
       lpeversion="1"
       switcher_size="15"
       interruption_width="3"
       prop_to_stroke_width="true"
       add_stroke_width="inkscape_1.0_and_up"
       both="false"
       inverse_width="false"
       add_other_stroke_width="inkscape_1.0_and_up"
       crossing_points_vector="" />
    <inkscape:path-effect
       effect="fillet_chamfer"
       id="path-effect36186"
       is_visible="true"
       lpeversion="1"
       satellites_param="F,0,0,1,0,5,0,1 @ F,0,0,1,0,5,0,1 @ F,0,0,1,0,5,0,1 @ F,0,0,1,0,5,0,1 @ F,0,0,1,0,5,0,1 | F,0,0,1,0,5,0,1 @ F,0,0,1,0,5,0,1 @ F,0,0,1,0,5,0,1 @ F,0,0,1,0,5,0,1 @ F,0,0,1,0,5,0,1 | F,0,0,1,0,5,0,1 @ F,0,0,1,0,5,0,1 @ F,0,0,1,0,5,0,1 @ F,0,0,1,0,5,0,1 @ F,0,0,1,0,5,0,1 | F,0,0,1,0,5,0,1 @ F,0,0,1,0,5,0,1 @ F,0,0,1,0,5,0,1 @ F,0,0,1,0,5,0,1 @ F,0,0,1,0,5,0,1"
       unit="px"
       method="auto"
       mode="F"
       radius="5"
       chamfer_steps="1"
       flexible="false"
       use_knot_distance="true"
       apply_no_radius="true"
       apply_with_radius="true"
       only_selected="false"
       hide_knots="false" />
    <inkscape:path-effect
       effect="fill_between_many"
       method="bsplinespiro"
       linkedpaths="#path239,0,1"
       id="path-effect36202"
       is_visible="true"
       lpeversion="0"
       join="true"
       close="true"
       autoreverse="true"
       applied="false" />
    <inkscape:path-effect
       effect="fill_between_many"
       method="bsplinespiro"
       linkedpaths="#path37855,0,1"
       id="path-effect49324"
       is_visible="true"
       lpeversion="0"
       join="true"
       close="true"
       autoreverse="true"
       applied="false" />
  </defs>
  <g
     inkscape:label="Camada 1"
     inkscape:groupmode="layer"
     id="layer1"
     transform="translate(-128.37772,-47.437943)">
    <g
       id="g1111"
       inkscape:export-filename="/home/klarkc/Sources/Levi/levi/packages/design/logo_square_light.png"
       inkscape:export-xdpi="106.46"
       inkscape:export-ydpi="106.46">
      <rect
         style="fill:#ffffff;stroke-width:0.706939"
         id="rect37804"
         width="190.87411"
         height="190.87411"
         x="-510.12595"
         y="47.437943"
         transform="scale(-1,1)" />
      <g
         id="g19801"
         transform="translate(24.80309,15.804707)">
        <g
           id="g18517"
           transform="translate(3.261015,-11.350461)">
          <text
             xml:space="preserve"
             style="font-style:normal;font-weight:normal;font-size:33.8667px;line-height:1.25;font-family:sans-serif;fill:#016270;fill-opacity:1;stroke:none;stroke-width:0.203971"
             x="390.27179"
             y="140.88794"
             id="text4123"><tspan
               sodipodi:role="line"
               id="tspan4121"
               style="font-style:normal;font-variant:normal;font-weight:normal;font-stretch:normal;font-size:33.8667px;font-family:Righteous;-inkscape-font-specification:Righteous;fill:#016270;fill-opacity:1;stroke-width:0.203971"
               x="390.27179"
               y="140.88794">levi</tspan></text>
          <text
             xml:space="preserve"
             style="font-style:normal;font-variant:normal;font-weight:normal;font-stretch:normal;font-size:22.5778px;line-height:1.25;font-family:Rosario;-inkscape-font-specification:Rosario;fill:#016270;fill-opacity:1;stroke:none;stroke-width:0.203971"
             x="390.90784"
             y="156.5865"
             id="text3328"><tspan
               sodipodi:role="line"
               id="tspan3326"
               style="font-style:normal;font-variant:normal;font-weight:normal;font-stretch:normal;font-size:22.5778px;font-family:Rosario;-inkscape-font-specification:Rosario;fill:#016270;fill-opacity:1;stroke-width:0.203971"
               x="390.90784"
               y="156.5865">money</tspan></text>
        </g>
        <g
           id="g18511"
           transform="translate(21.324501,-8.6723909)">
          <path
             id="path37855"
             style="fill:#017f91;fill-opacity:1;fill-rule:nonzero;stroke:#017f91;stroke-width:0.280017"
             d="m 329.14111,98.781351 c -3.05039,0.845298 -11.18563,3.099719 -17.25117,7.449179 -6.06554,4.34947 -14.10411,13.69327 -18.1535,17.23159 -4.04938,3.53833 -6.81056,3.6302 -5.80759,8.43393 1.00297,4.80373 6.43933,17.52013 10.69114,23.68013 4.25181,6.16 10.15273,9.87089 12.38117,11.75839 2.22843,1.8875 2.27151,3.20956 2.30115,4.25744 0.0296,1.04788 0.0656,2.52018 4.03493,1.76347 3.96934,-0.75671 14.51752,-4.2453 20.67372,-8.51191 6.1562,-4.26662 12.02552,-12.15618 15.26629,-15.15119 3.24077,-2.995 6.01204,-3.09187 5.07551,-7.83983 -0.93654,-4.74796 -6.20463,-17.31397 -10.45481,-23.46441 -4.25018,-6.15044 -10.31678,-9.98497 -12.63033,-12.57394 -2.31355,-2.58896 -2.4149,-5.65872 -2.54028,-6.797865 -0.12538,-1.139146 -0.35946,-1.105577 -0.44766,-1.092929 -0.0882,0.01265 -0.0882,0.01265 -3.13857,0.857945 z"
             inkscape:linked-fill="path49326"
             inkscape:path-effect="#path-effect49328"
             inkscape:original-d="m 332.19147,97.936021 c -6.10042,1.691815 -14.23566,3.946239 -20.33808,5.636049 -6.02792,7.00885 -14.06649,16.35265 -20.09641,23.3595 -2.06989,0.0699 -4.83107,0.16178 -6.90295,0.22969 4.07827,9.53831 9.51464,22.25471 13.59091,31.79102 4.42669,2.78417 10.32762,6.49505 14.75231,9.27722 0.0333,0.99254 0.0764,2.3146 0.1077,3.30514 0.028,1.10523 0.0639,2.57753 0.0899,3.68076 7.91213,-2.61544 18.46031,-6.10402 26.37044,-8.72145 4.40299,-5.91617 10.27231,-13.80572 14.6733,-19.72389 2.07946,-0.0717 4.85074,-0.16852 6.9282,-0.24217 -3.95007,-9.42351 -9.21817,-21.98952 -13.17024,-31.41503 -4.54895,-2.8749 -10.61555,-6.70943 -15.1665,-9.58633 -0.075,-2.30132 -0.17637,-5.37108 -0.25338,-7.674396 -0.17455,0.02618 -0.40863,0.05974 -0.58518,0.08392 9.9e-4,9.9e-4 9.9e-4,9.77e-4 -2e-5,-3.3e-5 z" />
          <path
             id="path239"
             style="fill:#01b9d3;fill-opacity:1;fill-rule:nonzero;stroke:none;stroke-width:0.0899583"
             d="m 303.55819,103.79627 c -8.78727,6.82782 -13.84271,18.18118 -12.97144,29.28159 0.0432,0.55056 0.13926,1.44109 0.2146,1.98819 0.28046,2.03641 0.76871,4.09604 1.44715,6.0401 0.18196,0.5214 0.5051,1.3568 0.72024,1.86543 0.68888,1.62867 1.5193,3.19789 2.47999,4.68243 0.30004,0.46364 0.93695,0.59333 1.40548,0.30093 l 0.70369,-0.43917 c 0.46853,-0.2924 0.71344,-0.95649 0.56561,-1.48859 -2.27237,-8.17898 -1.24078,-17.07394 2.09004,-24.82992 0.21793,-0.50747 0.59287,-1.32082 0.83796,-1.81573 1.77915,-3.59261 4.12462,-6.93689 7.10871,-9.62331 0.41043,-0.3695 0.51903,-1.03468 0.22695,-1.50342 -0.96384,-1.54682 -1.92769,-3.09364 -2.89153,-4.64046 -0.29207,-0.46874 -0.80166,-0.65634 -1.13822,-0.41903 z m 23.84159,0.38548 c -5.25038,0.35113 -10.42211,2.01576 -14.83979,4.88095 -0.46334,0.30051 -0.59248,0.93821 -0.30008,1.40674 l 0.43917,0.70369 c 0.2924,0.46853 0.95646,0.71338 1.48855,0.56547 8.11866,-2.25678 16.94722,-1.25763 24.66119,2.01764 0.50836,0.21584 1.32342,0.58705 1.81958,0.8296 3.65619,1.78728 7.06162,4.15936 9.78839,7.18947 0.36941,0.41051 1.03452,0.51917 1.50326,0.22709 1.54682,-0.96384 3.09363,-1.92768 4.64045,-2.89152 0.46874,-0.29208 0.59502,-0.89791 0.26613,-1.34156 -3.97064,-5.35618 -9.67314,-9.48635 -15.99008,-11.71293 -0.52086,-0.18359 -1.37421,-0.45563 -1.90499,-0.60816 -3.11665,-0.89558 -6.31547,-1.34573 -9.57331,-1.33507 -0.55226,0.002 -1.44744,0.0317 -1.99847,0.0686 z m 21.99923,21.91241 c -0.11787,0.0727 -0.23738,0.14594 -0.35704,0.21933 -0.47063,0.28861 -0.71344,0.95527 -0.56534,1.48731 2.24186,8.05384 1.27009,16.80939 -1.94018,24.47904 -0.21325,0.50946 -0.58012,1.32647 -0.81999,1.82393 -1.79652,3.72584 -4.19887,7.19458 -7.27577,9.96928 -0.41012,0.36984 -0.51836,1.03545 -0.22627,1.50417 0.96187,1.54357 1.92374,3.08715 2.88562,4.63072 0.29209,0.46872 0.89847,0.59577 1.34267,0.26763 5.62024,-4.15182 9.847,-10.20481 11.98704,-16.78763 0.17075,-0.52522 0.42353,-1.38448 0.56429,-1.9185 1.83534,-6.96326 1.40943,-14.54382 -1.46733,-21.16234 -0.22014,-0.50649 -0.60189,-1.31681 -0.85306,-1.80864 -0.46103,-0.9028 -0.97438,-1.79056 -1.51829,-2.62809 -0.30076,-0.46313 -0.71793,-0.73238 -0.91317,-0.61373 z m -59.6621,29.96659 c 4.2036,5.67145 10.29397,9.91961 16.98145,12.04517 0.52632,0.16729 1.38709,0.41487 1.92194,0.55247 6.45681,1.66121 13.51873,1.38872 19.78048,-1.03202 0.51511,-0.19914 1.33948,-0.54949 1.84081,-0.78113 1.30565,-0.60326 2.56969,-1.29779 3.77722,-2.07908 0.46367,-0.3 0.59343,-0.93708 0.3012,-1.40572 l -0.43979,-0.70526 c -0.29223,-0.46864 -0.95607,-0.71329 -1.48808,-0.56511 -8.02065,2.23391 -16.738,1.2766 -24.38497,-1.89963 -0.51004,-0.21185 -1.32778,-0.57708 -1.82567,-0.81607 -3.75842,-1.80404 -7.26498,-4.21463 -10.05876,-7.31954 -0.36938,-0.41052 -1.03438,-0.51912 -1.50303,-0.22692 -1.54562,0.96368 -3.09123,1.92737 -4.63684,2.89106 -0.46865,0.2922 -0.59481,0.8981 -0.26596,1.34178 z"
             inkscape:original-d="m 304.35742,103.19531 c -9.54801,6.94478 -14.97786,19.13378 -13.6765,30.87806 0.28138,2.68423 0.93285,5.44895 1.91341,7.971 0.87457,2.27234 2.02155,4.44097 3.41153,6.44001 0.80013,-0.49935 1.60026,-0.9987 2.40039,-1.49805 -2.73261,-8.75938 -1.57456,-18.43662 2.21289,-26.70313 1.96544,-4.23442 4.69286,-8.17745 8.29688,-11.17968 -1.31641,-2.11263 -2.63282,-4.22526 -3.94922,-6.3379 -0.20313,0.14323 -0.40625,0.28646 -0.60938,0.42969 z m 24.04102,0.93555 c -5.92347,0.20758 -11.80141,2.09149 -16.66797,5.49023 0.49935,0.80013 0.9987,1.60026 1.49805,2.40039 8.69902,-2.71521 18.30902,-1.59235 26.53601,2.13661 4.29909,1.96883 8.30612,4.72141 11.3468,8.37316 2.11263,-1.31641 4.22526,-2.63281 6.33789,-3.94922 -4.17332,-6.02372 -10.50902,-10.6055 -17.52062,-12.84397 -3.73416,-1.18892 -7.59105,-1.73362 -11.53016,-1.6072 z m 21.84375,21.42578 c -0.59542,0.40109 -1.3831,0.85804 -2.04883,1.28516 2.69928,8.63434 1.60518,18.17014 -2.05405,26.3558 -1.97289,4.37065 -4.75496,8.44224 -8.45376,11.53092 1.31445,2.10937 2.6289,4.21875 3.94336,6.32812 6.30326,-4.34781 10.97265,-11.05755 13.0957,-18.32422 2.23332,-7.54091 1.7784,-15.9058 -1.61195,-23.03554 -0.70714,-1.51557 -1.57979,-3.02164 -2.51696,-4.35508 -0.11784,0.0716 -0.23567,0.14323 -0.35351,0.21484 z m -61.08789,29.69141 c 4.40367,6.35417 11.1415,11.04215 18.52148,13.14648 7.02995,2.039 14.87668,1.75259 21.67142,-1.14457 1.93793,-0.82065 3.79418,-1.839 5.52194,-3.04098 -0.49935,-0.80078 -0.9987,-1.60156 -1.49805,-2.40234 -8.6013,2.69071 -18.09815,1.61185 -26.26277,-2.01081 -4.40217,-1.98032 -8.51517,-4.76702 -11.62004,-8.497 -2.11133,1.3164 -4.22266,2.63281 -6.33398,3.94922 z"
             inkscape:path-effect="#path-effect49305" />
        </g>
      </g>
    </g>
    <g
       id="g1099"
       transform="translate(67.003635)"
       inkscape:export-filename="/home/klarkc/Sources/Levi/levi/packages/design/logo_square_dark.png"
       inkscape:export-xdpi="106.46"
       inkscape:export-ydpi="106.46">
      <rect
         style="fill:#01b9d3;fill-opacity:1;stroke-width:0.706939"
         id="rect7396"
         width="190.87411"
         height="190.87411"
         x="61.374081"
         y="47.437943" />
      <g
         id="g964"
         transform="translate(22.551438,-0.08391775)">
        <g
           id="g19811"
           transform="translate(-252.36508,4.538171)">
          <text
             xml:space="preserve"
             style="font-style:normal;font-weight:normal;font-size:33.8667px;line-height:1.25;font-family:sans-serif;fill:#016270;fill-opacity:1;stroke:none;stroke-width:0.203971"
             x="390.27179"
             y="140.88794"
             id="text19805"><tspan
               sodipodi:role="line"
               id="tspan19803"
               style="font-style:normal;font-variant:normal;font-weight:normal;font-stretch:normal;font-size:33.8667px;font-family:Righteous;-inkscape-font-specification:Righteous;fill:#016270;fill-opacity:1;stroke-width:0.203971"
               x="390.27179"
               y="140.88794">levi</tspan></text>
          <text
             xml:space="preserve"
             style="font-style:normal;font-variant:normal;font-weight:normal;font-stretch:normal;font-size:22.5778px;line-height:1.25;font-family:Rosario;-inkscape-font-specification:Rosario;fill:#016270;fill-opacity:1;stroke:none;stroke-width:0.203971"
             x="390.90784"
             y="156.5865"
             id="text19809"><tspan
               sodipodi:role="line"
               id="tspan19807"
               style="font-style:normal;font-variant:normal;font-weight:normal;font-stretch:normal;font-size:22.5778px;font-family:Rosario;-inkscape-font-specification:Rosario;fill:#016270;fill-opacity:1;stroke-width:0.203971"
               x="390.90784"
               y="156.5865">money</tspan></text>
        </g>
        <path
           id="path19813"
           style="fill:#017f91;fill-opacity:1;fill-rule:nonzero;stroke:#017f91;stroke-width:0.280017"
           d="m 94.839505,105.99757 c -3.050375,0.84532 -11.185615,3.09974 -17.251155,7.4492 -6.065541,4.34947 -14.104107,13.69327 -18.153496,17.23159 -4.049388,3.53833 -6.810568,3.6302 -5.807596,8.43393 1.002972,4.80373 6.439334,17.52013 10.691143,23.68013 4.251809,6.16 10.152734,9.87089 12.381168,11.75839 2.228435,1.8875 2.271515,3.20956 2.30115,4.25744 0.02964,1.04788 0.0656,2.52018 4.034936,1.76347 3.96934,-0.75671 14.51752,-4.2453 20.673715,-8.51191 6.1562,-4.26662 12.02552,-12.15618 15.26629,-15.15119 3.24077,-2.995 6.01204,-3.09187 5.07551,-7.83983 -0.93654,-4.74796 -6.20463,-17.31397 -10.45481,-23.46441 -4.25018,-6.15044 -10.31678,-9.98497 -12.63033,-12.57394 -2.31355,-2.58896 -2.414902,-5.65872 -2.540284,-6.79786 -0.125381,-1.13915 -0.359452,-1.10559 -0.447649,-1.09295 -0.0882,0.0127 -0.0882,0.0127 -0.08821,0.0126 -10e-6,-2e-5 -10e-6,0 -3.050385,0.84531 z"
           inkscape:linked-fill="path49326"
           inkscape:path-effect="#path-effect19823"
           inkscape:original-d="m 97.88988,105.15226 c -6.10042,1.69182 -14.23566,3.94624 -20.33808,5.63605 -6.02792,7.00885 -14.06649,16.35265 -20.09641,23.3595 -2.06989,0.0699 -4.83107,0.16178 -6.90295,0.22969 4.07827,9.53831 9.51464,22.25471 13.59091,31.79102 4.42669,2.78417 10.32762,6.49505 14.75231,9.27722 0.0333,0.99254 0.0764,2.3146 0.1077,3.30514 0.028,1.10523 0.0639,2.57753 0.0899,3.68076 7.91213,-2.61544 18.46031,-6.10402 26.37044,-8.72145 4.40299,-5.91617 10.27231,-13.80572 14.6733,-19.72389 2.07946,-0.0717 4.85074,-0.16852 6.9282,-0.24217 -3.95007,-9.42351 -9.21817,-21.98952 -13.17024,-31.41503 -4.54895,-2.8749 -10.61555,-6.70943 -15.1665,-9.58633 -0.075,-2.30132 -0.17637,-5.37108 -0.25338,-7.67439 -0.17455,0.0262 -0.40863,0.0597 -0.58518,0.0839 9.9e-4,9.9e-4 9.9e-4,9.7e-4 -2e-5,-4e-5 z" />
        <path
           id="path19815"
           style="fill:#3bc5d8;fill-opacity:1;fill-rule:nonzero;stroke:none;stroke-width:0.0899583"
           d="m 69.256603,111.01251 c -8.787278,6.82782 -13.842711,18.18118 -12.971448,29.28159 0.04321,0.55056 0.139261,1.44109 0.214607,1.98819 0.280456,2.03641 0.768708,4.09604 1.44715,6.0401 0.181962,0.5214 0.505103,1.3568 0.72024,1.86543 0.688879,1.62867 1.519298,3.19789 2.479992,4.68243 0.30004,0.46364 0.936944,0.59333 1.405473,0.30093 l 0.703696,-0.43917 c 0.468529,-0.2924 0.713437,-0.95649 0.565602,-1.48859 -2.272361,-8.17898 -1.240774,-17.07394 2.090041,-24.82992 0.217934,-0.50747 0.592874,-1.32082 0.837963,-1.81573 1.779148,-3.59261 4.124625,-6.93689 7.108709,-9.62331 0.410431,-0.3695 0.519029,-1.03468 0.226954,-1.50342 -0.963845,-1.54682 -1.927689,-3.09364 -2.891529,-4.64046 -0.292072,-0.46874 -0.801667,-0.65634 -1.138223,-0.41903 z m 23.841585,0.38548 c -5.250383,0.35113 -10.422107,2.01576 -14.839787,4.88095 -0.463339,0.30051 -0.592482,0.93821 -0.30008,1.40674 l 0.439168,0.70369 c 0.292402,0.46853 0.956466,0.71338 1.488553,0.56547 8.118659,-2.25678 16.947213,-1.25763 24.661188,2.01764 0.50836,0.21584 1.32342,0.58705 1.81958,0.8296 3.65619,1.78728 7.06162,4.15936 9.78839,7.18947 0.36941,0.41051 1.03452,0.51917 1.50326,0.22709 1.54682,-0.96384 3.09363,-1.92768 4.64045,-2.89152 0.46874,-0.29208 0.59502,-0.89791 0.26613,-1.34156 -3.97064,-5.35618 -9.67314,-9.48635 -15.99008,-11.71293 -0.52086,-0.18359 -1.37421,-0.45563 -1.90499,-0.60816 -3.11665,-0.89558 -6.315473,-1.34573 -9.573311,-1.33507 -0.552263,0.002 -1.44744,0.0317 -1.998471,0.0686 z m 21.999232,21.91241 c -0.11787,0.0727 -0.23738,0.14594 -0.35704,0.21933 -0.47063,0.28861 -0.71344,0.95527 -0.56534,1.48731 2.24186,8.05384 1.27009,16.80939 -1.94018,24.47904 -0.21325,0.50946 -0.58012,1.32647 -0.81999,1.82393 -1.79652,3.72584 -4.19887,7.19458 -7.27577,9.96928 -0.41012,0.36984 -0.51836,1.03545 -0.22627,1.50417 0.96187,1.54357 1.92374,3.08715 2.88562,4.63072 0.29209,0.46872 0.89847,0.59577 1.34267,0.26763 5.62024,-4.15182 9.847,-10.20481 11.98704,-16.78763 0.17075,-0.52522 0.42353,-1.38448 0.56429,-1.9185 1.83534,-6.96326 1.40943,-14.54382 -1.46733,-21.16234 -0.22014,-0.50649 -0.60189,-1.31681 -0.85306,-1.80864 -0.46103,-0.9028 -0.97438,-1.79056 -1.51829,-2.62809 -0.30076,-0.46313 -0.71793,-0.73238 -0.91317,-0.61373 z m -59.662099,29.96659 c 4.203603,5.67145 10.293969,9.91961 16.981445,12.04517 0.526326,0.16729 1.387098,0.41487 1.921944,0.55247 6.456812,1.66121 13.518728,1.38872 19.78048,-1.03202 0.515114,-0.19914 1.339481,-0.54949 1.840815,-0.78113 1.305641,-0.60326 2.56969,-1.29779 3.777213,-2.07908 0.463672,-0.3 0.593432,-0.93708 0.301202,-1.40572 l -0.439788,-0.70526 c -0.292232,-0.46864 -0.95607,-0.71329 -1.488082,-0.56511 -8.020646,2.23391 -16.738001,1.2766 -24.384969,-1.89963 -0.510038,-0.21185 -1.327786,-0.57708 -1.825671,-0.81607 -3.758424,-1.80404 -7.264977,-4.21463 -10.058756,-7.31954 -0.369388,-0.41052 -1.034383,-0.51912 -1.503036,-0.22692 -1.545615,0.96368 -3.091229,1.92737 -4.636838,2.89106 -0.468653,0.2922 -0.594808,0.8981 -0.265959,1.34178 z"
           inkscape:original-d="m 70.05583,110.41155 c -9.54801,6.94478 -14.97786,19.13378 -13.6765,30.87806 0.28138,2.68423 0.93285,5.44895 1.91341,7.971 0.87457,2.27234 2.02155,4.44097 3.41153,6.44001 0.80013,-0.49935 1.60026,-0.9987 2.40039,-1.49805 -2.73261,-8.75938 -1.57456,-18.43662 2.21289,-26.70313 1.96544,-4.23442 4.69286,-8.17745 8.29688,-11.17968 -1.31641,-2.11263 -2.63282,-4.22526 -3.94922,-6.3379 -0.20313,0.14323 -0.40625,0.28646 -0.60938,0.42969 z m 24.04102,0.93555 c -5.92347,0.20758 -11.80141,2.09149 -16.66797,5.49023 0.49935,0.80013 0.9987,1.60026 1.49805,2.40039 8.69902,-2.71521 18.30902,-1.59235 26.53601,2.13661 4.29909,1.96883 8.30612,4.72141 11.3468,8.37316 2.11263,-1.31641 4.22526,-2.63281 6.33789,-3.94922 -4.17332,-6.02372 -10.50902,-10.6055 -17.52062,-12.84397 -3.73416,-1.18892 -7.59105,-1.73362 -11.53016,-1.6072 z m 21.84375,21.42578 c -0.59542,0.40109 -1.3831,0.85804 -2.04883,1.28516 2.69928,8.63434 1.60518,18.17014 -2.05405,26.3558 -1.97289,4.37065 -4.75496,8.44224 -8.45376,11.53092 1.31445,2.10937 2.6289,4.21875 3.94336,6.32812 6.30326,-4.34781 10.97265,-11.05755 13.0957,-18.32422 2.23332,-7.54091 1.7784,-15.9058 -1.61195,-23.03554 -0.70714,-1.51557 -1.57979,-3.02164 -2.51696,-4.35508 -0.11784,0.0716 -0.23567,0.14323 -0.35351,0.21484 z m -61.08789,29.69141 c 4.40367,6.35417 11.1415,11.04215 18.52148,13.14648 7.02995,2.039 14.87668,1.75259 21.67142,-1.14457 1.93793,-0.82065 3.79418,-1.839 5.52194,-3.04098 -0.49935,-0.80078 -0.9987,-1.60156 -1.49805,-2.40234 -8.6013,2.69071 -18.09815,1.61185 -26.26277,-2.01081 -4.40217,-1.98032 -8.51517,-4.76702 -11.62004,-8.497 -2.11133,1.3164 -4.22266,2.63281 -6.33398,3.94922 z"
           inkscape:path-effect="#path-effect19827" />
      </g>
    </g>
  </g>
</svg>
